
<svg version="1.0" xmlns="http://www.w3.org/2000/svg"
 width="164.000000pt" height="43.000000pt" viewBox="0 0 164.000000 43.000000"
 preserveAspectRatio="xMidYMid meet">

<g transform="translate(0.000000,43.000000) scale(0.100000,-0.100000)"
fill="#000000" stroke="none">
<path d="M0 215 l0 -215 820 0 820 0 0 215 0 215 -820 0 -820 0 0 -215z m1487
68 c-2 -16 -4 -3 -4 27 0 30 2 43 4 28 2 -16 2 -40 0 -55z m63 39 l25 -37 6
40 c6 39 6 39 8 -12 0 -29 -2 -53 -6 -53 -5 0 -19 17 -33 38 l-25 37 -6 -40
c-6 -39 -6 -39 -8 13 0 28 2 52 7 52 4 0 18 -17 32 -38z m-340 -63 c0 -36 2
-40 20 -34 35 11 50 -12 50 -77 0 -82 -10 -97 -62 -94 l-43 2 -3 122 c-2 117
-2 122 18 122 17 0 20 -6 20 -41z m-564 4 c3 -16 9 -41 13 -58 l8 -30 7 40
c12 65 16 75 36 75 18 0 18 -4 -6 -87 -13 -49 -24 -103 -24 -120 0 -23 -5 -33
-15 -33 -10 0 -15 10 -15 33 0 17 -11 71 -24 120 -24 84 -24 87 -6 87 13 0 22
-9 26 -27z m414 12 c0 -8 -9 -15 -20 -15 -18 0 -20 -8 -22 -102 -3 -89 -5
-103 -20 -106 -16 -3 -18 7 -18 102 0 99 -1 106 -20 106 -11 0 -20 7 -20 15 0
12 13 15 60 15 47 0 60 -3 60 -15z m-632 -100 c3 -3 -84 -55 -92 -55 -3 0 -6
25 -6 56 l0 56 48 -28 c26 -15 48 -28 50 -29z m380 42 c16 -19 24 -88 14 -122
-11 -41 -53 -56 -82 -30 -26 23 -29 125 -4 149 19 19 58 21 72 3z m80 -65 c4
-95 22 -93 22 3 0 68 2 75 20 75 19 0 20 -7 20 -90 0 -73 -3 -90 -15 -90 -8 0
-15 5 -15 11 0 8 -4 8 -15 -1 -8 -6 -23 -9 -35 -5 -18 6 -20 14 -20 91 0 76 2
85 18 82 14 -3 18 -16 20 -76z m194 6 c2 -46 7 -73 16 -76 9 -3 12 16 12 72 0
69 2 76 20 76 19 0 20 -7 20 -90 0 -73 -3 -90 -15 -90 -8 0 -15 5 -15 12 0 9
-3 9 -12 0 -20 -20 -48 -14 -58 14 -11 29 -14 137 -3 147 3 4 12 7 19 7 9 0
14 -21 16 -72z m306 60 c7 -7 12 -29 12 -50 0 -36 -2 -38 -30 -38 -25 0 -30
-4 -30 -25 0 -27 17 -34 26 -10 10 24 36 18 32 -7 -5 -33 -51 -47 -78 -23 -26
23 -29 125 -4 149 18 19 55 21 72 4z"/>
<path d="M1214 186 c-9 -22 0 -101 11 -99 14 4 19 113 5 113 -6 0 -13 -6 -16
-14z"/>
<path d="M760 140 c0 -45 3 -61 13 -57 7 2 12 23 12 57 0 34 -5 55 -12 58 -10
3 -13 -13 -13 -58z"/>
<path d="M1340 175 c0 -14 5 -25 10 -25 6 0 10 11 10 25 0 14 -4 25 -10 25 -5
0 -10 -11 -10 -25z"/>
</g>
</svg>
